<mxfile host="app.diagrams.net" modified="2023-12-31T10:03:21.487Z" agent="Mozilla/5.0 (Windows NT 10.0; Win64; x64) AppleWebKit/537.36 (KHTML, like Gecko) Chrome/120.0.0.0 Safari/537.36" etag="n5EIrH5mYvMn6hOVf7kb" version="22.1.16" type="github">
  <diagram name="第 1 页" id="FBBwjbZvHrsyFr1WFBbr">
    <mxGraphModel dx="1050" dy="522" grid="1" gridSize="10" guides="1" tooltips="1" connect="1" arrows="1" fold="1" page="1" pageScale="1" pageWidth="827" pageHeight="1169" math="0" shadow="0">
      <root>
        <mxCell id="0" />
        <mxCell id="1" parent="0" />
        <mxCell id="YAZ7SUdsLsKJDcuLRaWZ-12" style="edgeStyle=orthogonalEdgeStyle;rounded=0;orthogonalLoop=1;jettySize=auto;html=1;exitX=0.5;exitY=1;exitDx=0;exitDy=0;exitPerimeter=0;entryX=0.5;entryY=0;entryDx=0;entryDy=0;" edge="1" parent="1" source="YAZ7SUdsLsKJDcuLRaWZ-4" target="YAZ7SUdsLsKJDcuLRaWZ-7">
          <mxGeometry relative="1" as="geometry" />
        </mxCell>
        <mxCell id="YAZ7SUdsLsKJDcuLRaWZ-4" value="開始" style="strokeWidth=1;html=1;shape=mxgraph.flowchart.start_1;whiteSpace=wrap;" vertex="1" parent="1">
          <mxGeometry x="360" y="40" width="120" height="60" as="geometry" />
        </mxCell>
        <mxCell id="YAZ7SUdsLsKJDcuLRaWZ-5" value="結束" style="strokeWidth=1;html=1;shape=mxgraph.flowchart.terminator;whiteSpace=wrap;strokeColor=default;" vertex="1" parent="1">
          <mxGeometry x="360" y="460" width="120" height="60" as="geometry" />
        </mxCell>
        <mxCell id="YAZ7SUdsLsKJDcuLRaWZ-13" style="edgeStyle=orthogonalEdgeStyle;rounded=0;orthogonalLoop=1;jettySize=auto;html=1;exitX=0.5;exitY=1;exitDx=0;exitDy=0;entryX=0.5;entryY=0;entryDx=0;entryDy=0;" edge="1" parent="1" source="YAZ7SUdsLsKJDcuLRaWZ-7" target="YAZ7SUdsLsKJDcuLRaWZ-9">
          <mxGeometry relative="1" as="geometry" />
        </mxCell>
        <mxCell id="YAZ7SUdsLsKJDcuLRaWZ-7" value="登錄" style="rounded=0;whiteSpace=wrap;html=1;" vertex="1" parent="1">
          <mxGeometry x="360" y="140" width="120" height="40" as="geometry" />
        </mxCell>
        <mxCell id="YAZ7SUdsLsKJDcuLRaWZ-8" value="登錄失敗" style="rounded=0;whiteSpace=wrap;html=1;" vertex="1" parent="1">
          <mxGeometry x="240" y="140" width="80" height="40" as="geometry" />
        </mxCell>
        <mxCell id="YAZ7SUdsLsKJDcuLRaWZ-14" style="edgeStyle=orthogonalEdgeStyle;rounded=0;orthogonalLoop=1;jettySize=auto;html=1;exitX=0.5;exitY=1;exitDx=0;exitDy=0;entryX=0.5;entryY=0;entryDx=0;entryDy=0;" edge="1" parent="1" source="YAZ7SUdsLsKJDcuLRaWZ-9" target="YAZ7SUdsLsKJDcuLRaWZ-10">
          <mxGeometry relative="1" as="geometry" />
        </mxCell>
        <mxCell id="YAZ7SUdsLsKJDcuLRaWZ-15" value="Y" style="edgeLabel;html=1;align=center;verticalAlign=middle;resizable=0;points=[];fontSize=12;" vertex="1" connectable="0" parent="YAZ7SUdsLsKJDcuLRaWZ-14">
          <mxGeometry x="-0.11" relative="1" as="geometry">
            <mxPoint as="offset" />
          </mxGeometry>
        </mxCell>
        <mxCell id="YAZ7SUdsLsKJDcuLRaWZ-9" value="帳號是否存在" style="rhombus;whiteSpace=wrap;html=1;" vertex="1" parent="1">
          <mxGeometry x="320" y="200" width="200" height="60" as="geometry" />
        </mxCell>
        <mxCell id="YAZ7SUdsLsKJDcuLRaWZ-16" style="edgeStyle=orthogonalEdgeStyle;rounded=0;orthogonalLoop=1;jettySize=auto;html=1;exitX=0.5;exitY=1;exitDx=0;exitDy=0;entryX=0.5;entryY=0;entryDx=0;entryDy=0;" edge="1" parent="1" source="YAZ7SUdsLsKJDcuLRaWZ-10" target="YAZ7SUdsLsKJDcuLRaWZ-11">
          <mxGeometry relative="1" as="geometry" />
        </mxCell>
        <mxCell id="YAZ7SUdsLsKJDcuLRaWZ-17" value="Y" style="edgeLabel;html=1;align=center;verticalAlign=middle;resizable=0;points=[];fontSize=12;" vertex="1" connectable="0" parent="YAZ7SUdsLsKJDcuLRaWZ-16">
          <mxGeometry x="-0.21" relative="1" as="geometry">
            <mxPoint as="offset" />
          </mxGeometry>
        </mxCell>
        <mxCell id="YAZ7SUdsLsKJDcuLRaWZ-20" style="edgeStyle=orthogonalEdgeStyle;rounded=0;orthogonalLoop=1;jettySize=auto;html=1;exitX=0;exitY=0.5;exitDx=0;exitDy=0;entryX=0.5;entryY=1;entryDx=0;entryDy=0;" edge="1" parent="1" source="YAZ7SUdsLsKJDcuLRaWZ-10" target="YAZ7SUdsLsKJDcuLRaWZ-8">
          <mxGeometry relative="1" as="geometry" />
        </mxCell>
        <mxCell id="YAZ7SUdsLsKJDcuLRaWZ-21" value="N" style="edgeLabel;html=1;align=center;verticalAlign=middle;resizable=0;points=[];fontSize=12;" vertex="1" connectable="0" parent="YAZ7SUdsLsKJDcuLRaWZ-20">
          <mxGeometry x="-0.04" y="1" relative="1" as="geometry">
            <mxPoint as="offset" />
          </mxGeometry>
        </mxCell>
        <mxCell id="YAZ7SUdsLsKJDcuLRaWZ-10" value="密碼是否正確" style="rhombus;whiteSpace=wrap;html=1;" vertex="1" parent="1">
          <mxGeometry x="320" y="300" width="200" height="60" as="geometry" />
        </mxCell>
        <mxCell id="YAZ7SUdsLsKJDcuLRaWZ-11" value="登錄成功" style="rounded=0;whiteSpace=wrap;html=1;" vertex="1" parent="1">
          <mxGeometry x="360" y="400" width="120" height="40" as="geometry" />
        </mxCell>
        <mxCell id="YAZ7SUdsLsKJDcuLRaWZ-18" style="edgeStyle=orthogonalEdgeStyle;rounded=0;orthogonalLoop=1;jettySize=auto;html=1;exitX=0.5;exitY=1;exitDx=0;exitDy=0;entryX=0.5;entryY=0;entryDx=0;entryDy=0;entryPerimeter=0;" edge="1" parent="1" source="YAZ7SUdsLsKJDcuLRaWZ-11" target="YAZ7SUdsLsKJDcuLRaWZ-5">
          <mxGeometry relative="1" as="geometry" />
        </mxCell>
        <mxCell id="YAZ7SUdsLsKJDcuLRaWZ-23" value="" style="endArrow=none;html=1;rounded=0;" edge="1" parent="1">
          <mxGeometry width="50" height="50" relative="1" as="geometry">
            <mxPoint x="520" y="230" as="sourcePoint" />
            <mxPoint x="520" y="120" as="targetPoint" />
          </mxGeometry>
        </mxCell>
        <mxCell id="YAZ7SUdsLsKJDcuLRaWZ-27" value="N" style="edgeLabel;html=1;align=center;verticalAlign=middle;resizable=0;points=[];fontSize=12;" vertex="1" connectable="0" parent="YAZ7SUdsLsKJDcuLRaWZ-23">
          <mxGeometry x="0.84" relative="1" as="geometry">
            <mxPoint y="1" as="offset" />
          </mxGeometry>
        </mxCell>
        <mxCell id="YAZ7SUdsLsKJDcuLRaWZ-24" value="" style="endArrow=classic;html=1;rounded=0;" edge="1" parent="1">
          <mxGeometry width="50" height="50" relative="1" as="geometry">
            <mxPoint x="520" y="120" as="sourcePoint" />
            <mxPoint x="420" y="120" as="targetPoint" />
          </mxGeometry>
        </mxCell>
        <mxCell id="YAZ7SUdsLsKJDcuLRaWZ-25" value="" style="endArrow=classic;html=1;rounded=0;" edge="1" parent="1">
          <mxGeometry width="50" height="50" relative="1" as="geometry">
            <mxPoint x="280" y="120" as="sourcePoint" />
            <mxPoint x="420" y="120" as="targetPoint" />
          </mxGeometry>
        </mxCell>
        <mxCell id="YAZ7SUdsLsKJDcuLRaWZ-26" value="" style="endArrow=none;html=1;rounded=0;" edge="1" parent="1">
          <mxGeometry width="50" height="50" relative="1" as="geometry">
            <mxPoint x="279.5" y="140" as="sourcePoint" />
            <mxPoint x="279.5" y="120" as="targetPoint" />
          </mxGeometry>
        </mxCell>
      </root>
    </mxGraphModel>
  </diagram>
</mxfile>
